<svg version="1.0" xmlns="http://www.w3.org/2000/svg"
 width="100%" height="40px" viewBox="0 0 595.000000 160.000000"
 preserveAspectRatio="xMidYMid meet">
	<g transform="translate(0.000000,160.000000) scale(0.100000,-0.100000)"
	fill="#000000" stroke="none">
		<path d="M4490 1534 c-25 -4 -210 -23 -280 -29 -36 -3 -101 -9 -145 -14 -44
		-6 -170 -15 -280 -21 -110 -6 -258 -18 -330 -26 -217 -26 -392 -32 -805 -29
		-379 4 -649 19 -809 46 -36 6 -127 15 -201 19 -74 4 -180 16 -235 25 -138 24
		-475 25 -537 3 -24 -9 -74 -22 -113 -29 -123 -21 -191 -50 -322 -135 -75 -50
		-210 -180 -240 -233 -14 -25 -37 -64 -52 -86 -78 -122 -147 -347 -138 -455 6
		-74 34 -155 75 -221 64 -101 285 -177 752 -259 142 -25 757 -35 905 -15 17 2
		86 9 155 15 69 6 193 24 275 40 128 25 227 39 450 65 22 2 81 7 130 10 50 4
		101 9 115 12 14 3 250 8 525 10 470 5 511 4 690 -17 257 -30 230 -26 499 -70
		214 -35 260 -40 411 -40 127 0 193 5 260 19 257 53 512 252 641 501 27 50 29
		64 29 160 0 97 -2 110 -32 172 -44 94 -72 131 -141 191 -70 61 -319 200 -437
		245 -184 70 -341 114 -470 131 -78 11 -315 21 -345 15z"/>
	</g>
</svg>
